<?xml version="1.0" encoding="UTF-8"?>
<!-- Created with Inkscape (http://www.inkscape.org/) -->
<svg width="45mm" height="45mm" version="1.1" viewBox="0 0 45 45" xmlns="http://www.w3.org/2000/svg">
 <g fill="#71717a" fill-opacity=".25" fill-rule="evenodd" stroke="#000" stroke-opacity=".4" stroke-width=".26458">
  <path x="1.1322925" y="1.1322916" width="10" height="10" d="m3.7781 1.1323h4.7083a2.6458 2.6458 45 0 1 2.6458 2.6458v4.7083a2.6458 2.6458 135 0 1-2.6458 2.6458h-4.7083a2.6458 2.6458 45 0 1-2.6458-2.6458v-4.7083a2.6458 2.6458 135 0 1 2.6458-2.6458z" stop-color="#000000" style="-inkscape-stroke:none;font-variation-settings:normal"/>
  <path x="12.132293" y="1.1322916" width="10" height="10" d="m14.778 1.1323h4.7083a2.6458 2.6458 45 0 1 2.6458 2.6458v4.7083a2.6458 2.6458 135 0 1-2.6458 2.6458h-4.7083a2.6458 2.6458 45 0 1-2.6458-2.6458v-4.7083a2.6458 2.6458 135 0 1 2.6458-2.6458z" stop-color="#000000" style="-inkscape-stroke:none;font-variation-settings:normal"/>
  <path x="1.1322925" y="12.132292" width="10" height="10" d="m3.7781 12.132h4.7083a2.6458 2.6458 45 0 1 2.6458 2.6458v4.7083a2.6458 2.6458 135 0 1-2.6458 2.6458h-4.7083a2.6458 2.6458 45 0 1-2.6458-2.6458v-4.7083a2.6458 2.6458 135 0 1 2.6458-2.6458z" stop-color="#000000" style="-inkscape-stroke:none;font-variation-settings:normal"/>
  <path x="12.132293" y="12.132292" width="10" height="10" d="m14.778 12.132h4.7083a2.6458 2.6458 45 0 1 2.6458 2.6458v4.7083a2.6458 2.6458 135 0 1-2.6458 2.6458h-4.7083a2.6458 2.6458 45 0 1-2.6458-2.6458v-4.7083a2.6458 2.6458 135 0 1 2.6458-2.6458z" stop-color="#000000" style="-inkscape-stroke:none;font-variation-settings:normal"/>
  <path x="23.132292" y="12.132292" width="10" height="10" d="m25.778 12.132h4.7083a2.6458 2.6458 45 0 1 2.6458 2.6458v4.7083a2.6458 2.6458 135 0 1-2.6458 2.6458h-4.7083a2.6458 2.6458 45 0 1-2.6458-2.6458v-4.7083a2.6458 2.6458 135 0 1 2.6458-2.6458z" stop-color="#000000" style="-inkscape-stroke:none;font-variation-settings:normal"/>
  <path x="12.132293" y="23.132292" width="10" height="10" d="m14.778 23.132h4.7083a2.6458 2.6458 45 0 1 2.6458 2.6458v4.7083a2.6458 2.6458 135 0 1-2.6458 2.6458h-4.7083a2.6458 2.6458 45 0 1-2.6458-2.6458v-4.7083a2.6458 2.6458 135 0 1 2.6458-2.6458z" stop-color="#000000" style="-inkscape-stroke:none;font-variation-settings:normal"/>
  <path x="23.132292" y="23.132292" width="10" height="10" d="m25.778 23.132h4.7083a2.6458 2.6458 45 0 1 2.6458 2.6458v4.7083a2.6458 2.6458 135 0 1-2.6458 2.6458h-4.7083a2.6458 2.6458 45 0 1-2.6458-2.6458v-4.7083a2.6458 2.6458 135 0 1 2.6458-2.6458z" stop-color="#000000" style="-inkscape-stroke:none;font-variation-settings:normal"/>
  <path x="34.132294" y="23.132292" width="10" height="10" d="m36.778 23.132h4.7083a2.6458 2.6458 45 0 1 2.6458 2.6458v4.7083a2.6458 2.6458 135 0 1-2.6458 2.6458h-4.7083a2.6458 2.6458 45 0 1-2.6458-2.6458v-4.7083a2.6458 2.6458 135 0 1 2.6458-2.6458z" stop-color="#000000" style="-inkscape-stroke:none;font-variation-settings:normal"/>
  <path x="1.1322916" y="34.13229" width="10" height="10" d="m3.7781 34.132h4.7083a2.6458 2.6458 45 0 1 2.6458 2.6458v4.7083a2.6458 2.6458 135 0 1-2.6458 2.6458h-4.7083a2.6458 2.6458 45 0 1-2.6458-2.6458v-4.7083a2.6458 2.6458 135 0 1 2.6458-2.6458z" stop-color="#000000" style="-inkscape-stroke:none;font-variation-settings:normal"/>
  <path x="12.132293" y="34.13229" width="10" height="10" d="m14.778 34.132h4.7083a2.6458 2.6458 45 0 1 2.6458 2.6458v4.7083a2.6458 2.6458 135 0 1-2.6458 2.6458h-4.7083a2.6458 2.6458 45 0 1-2.6458-2.6458v-4.7083a2.6458 2.6458 135 0 1 2.6458-2.6458z" stop-color="#000000" style="-inkscape-stroke:none;font-variation-settings:normal"/>
  <path x="23.132292" y="34.13229" width="10" height="10" d="m25.778 34.132h4.7083a2.6458 2.6458 45 0 1 2.6458 2.6458v4.7083a2.6458 2.6458 135 0 1-2.6458 2.6458h-4.7083a2.6458 2.6458 45 0 1-2.6458-2.6458v-4.7083a2.6458 2.6458 135 0 1 2.6458-2.6458z" stop-color="#000000" style="-inkscape-stroke:none;font-variation-settings:normal"/>
  <path x="34.132294" y="34.13229" width="10" height="10" d="m36.778 34.132h4.7083a2.6458 2.6458 45 0 1 2.6458 2.6458v4.7083a2.6458 2.6458 135 0 1-2.6458 2.6458h-4.7083a2.6458 2.6458 45 0 1-2.6458-2.6458v-4.7083a2.6458 2.6458 135 0 1 2.6458-2.6458z" stop-color="#000000" style="-inkscape-stroke:none;font-variation-settings:normal"/>
 </g>
</svg>
